<svg width="385" height="91" viewBox="0 0 385 91" fill="none" xmlns="http://www.w3.org/2000/svg">
<path d="M297.5 74.4999C298.5 75.4999 299.1 76.7999 299.1 78.2999V85.6999H301.1V78.2999C301.1 76.2999 300.4 74.4999 298.9 73.0999C297.4 71.5999 295.8 70.8999 293.7 70.8999H286.3V85.6999H288.4V72.9999H293.7C295.1 72.9999 296.4 73.4999 297.5 74.4999Z" fill="#001052"/>
<path d="M317.5 72.9999V70.8999H302.8V85.6999H317.5V83.5999H304.8V79.2999H317.5V77.1999H304.8V72.9999H317.5Z" fill="#001052"/>
<path d="M326.7 85.6999H334V70.8999H332V83.5999H326.7C325.2 83.5999 323.9 83.0999 322.9 82.0999C321.9 81.0999 321.4 79.7999 321.4 78.2999V70.8999H319.3V78.2999C319.3 80.3999 320 82.0999 321.5 83.4999C322.9 84.9999 324.6 85.6999 326.7 85.6999Z" fill="#001052"/>
<path d="M349.7 78.8999L349.2 78.2999L349.7 77.6999C350.2 76.9999 350.5 76.0999 350.5 75.1999C350.5 74.0999 350.1 73.0999 349.3 72.1999C348.5 71.2999 347.5 70.8999 346.4 70.8999H335.8V85.6999H346.4C347.6 85.6999 348.5 85.2999 349.3 84.4999C350.1 83.6999 350.5 82.6999 350.5 81.4999C350.5 80.5999 350.2 79.6999 349.7 78.8999ZM347.7 83.0999C347.3 83.3999 346.8 83.5999 346.3 83.5999H337.8V79.2999H346.6C347.7 79.4999 348.4 80.2999 348.4 81.4999C348.4 82.0999 348.2 82.6999 347.7 83.0999ZM347.7 76.6999C347.3 77.0999 346.8 77.2999 346.3 77.2999H337.8V72.9999H346.3C346.8 72.9999 347.3 73.1999 347.8 73.5999C348.2 73.9999 348.4 74.5999 348.4 75.0999C348.4 75.6999 348.2 76.2999 347.7 76.6999Z" fill="#001052"/>
<path d="M376.8 78.4998L382.7 72.7998L381.2 71.2998L375.3 76.9998L369.4 71.2998L367.9 72.7998L373.8 78.4998L367.9 84.1998L369.4 85.6998L375.3 79.9998L381.2 85.6998L382.7 84.1998L376.8 78.4998Z" fill="#001052"/>
<path d="M359.6 70.7998C355.5 70.7998 352.2 74.0998 352.2 78.1998C352.2 82.2998 355.5 85.5998 359.6 85.5998C363.7 85.5998 367 82.2998 367 78.1998C367 74.0998 363.7 70.7998 359.6 70.7998ZM359.6 83.4998C356.7 83.4998 354.3 81.0998 354.3 78.1998C354.3 75.2998 356.7 72.8998 359.6 72.8998C362.5 72.8998 364.9 75.2998 364.9 78.1998C365 81.1998 362.6 83.4998 359.6 83.4998Z" fill="#001052"/>
<path d="M273.2 78.8998C274.1 78.8998 274.8 79.1998 275.3 79.7998C275.8 80.3998 276 81.2997 276 82.3997C276 83.4997 275.7 84.3998 275.2 84.9998C274.7 85.5998 274 85.8997 273.1 85.8997C272.7 85.8997 272.2 85.7998 271.9 85.6998C271.5 85.4998 271.2 85.2997 271 84.8997H270.9L270.7 85.7998H270V75.9998H271V78.3998C271 78.8998 271 79.3998 270.9 79.7998H271C271.5 79.1998 272.2 78.8998 273.2 78.8998ZM273 79.6998C272.3 79.6998 271.8 79.8998 271.5 80.2998C271.2 80.6998 271 81.3997 271 82.3997C271 83.3997 271.2 84.0998 271.5 84.4998C271.8 84.8998 272.3 85.0998 273 85.0998C273.6 85.0998 274.1 84.8997 274.4 84.3997C274.7 83.8997 274.9 83.2997 274.9 82.3997C274.9 81.4997 274.7 80.7997 274.4 80.3997C274.2 79.9997 273.7 79.6998 273 79.6998Z" fill="#001052"/>
<path d="M276.7 78.9999H277.8L279.3 82.8999C279.6 83.7999 279.8 84.3999 279.9 84.7999H280C280.1 84.5999 280.2 84.1999 280.3 83.6999C280.5 83.1999 281 81.5999 282 78.8999H283.1L280.1 86.6999C279.8 87.4999 279.5 87.9999 279.1 88.2999C278.7 88.5999 278.2 88.7999 277.7 88.7999C277.4 88.7999 277.1 88.7999 276.8 88.6999V87.9999C277 88.0999 277.3 88.0999 277.6 88.0999C278.3 88.0999 278.8 87.6999 279.1 86.8999L279.5 85.8999L276.7 78.9999Z" fill="#001052"/>
<path d="M60.3 61.2999L45.1 35.2999C45 35.1999 44.9 35.0999 44.8 35.0999H41.2C41.1 35.0999 41 35.1999 40.9 35.2999C40.5 35.8999 40.1 36.4999 39.7 37.1999L19.6 71.9999C16.3 77.7999 16.6 81.3998 17.4 83.3998C17.9 84.5998 18.7 85.2998 19 85.3998H19.1H19.2C21.1 85.3998 22.9 84.3999 23.8 82.6999L31.8 68.7999C34.3 64.3999 39 61.6999 44.1 61.6999H44.2L60 61.7999C60.1 61.7999 60.3 61.6999 60.3 61.5999C60.4 61.5999 60.4 61.3999 60.3 61.2999Z" fill="#FF6600"/>
<path d="M70.1 27.6999L55 1.6999C54.9 1.5999 54.8 1.4999 54.7 1.4999L45.5 1.3999H45.3C35.9 1.3999 27.2 6.3999 22.5 14.4999L4 46.4999C2.4 49.2999 1.6 52.3999 1.7 55.6999C1.7 55.7999 1.7 55.8999 1.8 55.8999C2 56.1999 3 57.7999 4.9 57.7999C6.9 57.7999 9 55.8999 11.1 52.1999L16.6 42.6999C19.1 38.2999 23.8 35.5999 28.9 35.5999H29L41.2 35.6999C41.3 35.6999 41.4 35.5999 41.5 35.4999C45.9 29.1999 51.1 27.9999 59.9 27.9999H60.7L69.9 28.0999C70 28.0999 70.2 27.9999 70.2 27.8999C70.2 27.8999 70.2 27.7999 70.1 27.6999Z" fill="#002FEB"/>
<path d="M41.5 35.3C41.4 35.2 41.3 35.1 41.2 35.1L29 35H28.9C23.6 35 18.7 37.9 16 42.4L10.5 51.9C8.50001 55.3 6.60001 57.2 4.90001 57.2C3.30001 57.2 2.50001 55.6 2.40001 55.6C2.30001 55.5 2.20001 55.4 2.10001 55.4H2.00001C1.80001 55.4 1.70001 55.6 1.70001 55.8C1.90001 60.8 3.90001 64.6 4.00001 64.8L5.60001 67.6L7.50001 70.9L14.5 82.8C15.4 84.4 17.1 85.4 19 85.5C19.2 85.5 19.3 85.4 19.4 85.2C19.4 85 19.3 84.8 19.1 84.8C19 84.7 18.2 84.1 17.8 82.6C17.3 80.8 17.2 77.5 20.2 72.5L40.4 37.6C40.8 37 41.1 36.4 41.5 35.8C41.6 35.6 41.6 35.4 41.5 35.3Z" fill="#001052"/>
<path d="M99.5 15.5999C101.1 15.5999 102.5 15.7999 103.9 16.0999C105.2 16.3999 106.2 16.6999 107 16.9999L105.4 23.6999C104.6 23.3999 103.8 23.0999 102.9 22.8999C102 22.6999 101.2 22.5999 100.4 22.5999C99.4 22.5999 98.5 22.6999 97.8 22.9999C97.1 23.2999 96.6 23.6999 96.2 24.1999C95.8 24.6999 95.5 25.2999 95.4 25.9999C95.2 26.6999 95.1 27.3999 95.1 28.1999V28.2999H105.5V35.2999H95V59.3999H86.6V28.0999C86.6 24.2999 87.7 21.1999 89.8 18.8999C92 16.6999 95.2 15.5999 99.5 15.5999Z" fill="#001052"/>
<path d="M121.4 28.2998C123.9 28.2998 126 28.5998 127.6 29.0998C129.3 29.6998 130.6 30.4998 131.6 31.4998C132.6 32.5998 133.3 33.7998 133.7 35.2998C134.1 36.7998 134.3 38.4998 134.3 40.2998V57.9998C133.1 58.2998 131.4 58.5998 129.3 58.8998C127.2 59.2998 124.6 59.3998 121.5 59.3998C119.6 59.3998 117.8 59.1998 116.3 58.8998C114.7 58.5998 113.4 57.9998 112.3 57.1998C111.2 56.3998 110.3 55.3998 109.7 54.1998C109.1 52.9998 108.8 51.3998 108.8 49.5998C108.8 47.8998 109.1 46.3998 109.8 45.1998C110.5 43.9998 111.4 42.9998 112.6 42.2998C113.8 41.5998 115.1 41.0998 116.6 40.6998C118.1 40.3998 119.7 40.1998 121.3 40.1998C122.4 40.1998 123.4 40.1998 124.2 40.2998C125 40.3998 125.7 40.4998 126.3 40.6998V39.8998C126.3 38.4998 125.9 37.2998 125 36.4998C124.1 35.5998 122.6 35.1998 120.5 35.1998C119.1 35.1998 117.7 35.2998 116.3 35.4998C114.9 35.6998 113.7 35.9998 112.7 36.3998L111.6 29.5998C112.1 29.3998 112.7 29.2998 113.4 29.0998C114.1 28.8998 114.9 28.7998 115.8 28.5998C116.7 28.4998 117.6 28.3998 118.5 28.2998C119.4 28.3998 120.4 28.2998 121.4 28.2998ZM122 52.9998C122.8 52.9998 123.6 52.9998 124.4 52.8998C125.2 52.8998 125.8 52.7998 126.2 52.6998V46.2998C125.9 46.1998 125.4 46.0998 124.7 46.0998C124 45.9998 123.4 45.9998 122.8 45.9998C122 45.9998 121.3 45.9998 120.6 46.0998C119.9 46.1998 119.3 46.3998 118.8 46.5998C118.3 46.8998 117.9 47.1998 117.6 47.6998C117.3 48.1998 117.1 48.6998 117.1 49.3998C117.1 50.6998 117.5 51.5998 118.4 52.0998C119.3 52.6998 120.5 52.9998 122 52.9998Z" fill="#001052"/>
<path d="M137.6 43.7999C137.6 41.6999 137.9 39.5999 138.6 37.6999C139.3 35.7999 140.3 34.0999 141.6 32.6999C142.9 31.2999 144.5 30.1999 146.4 29.2999C148.3 28.4999 150.4 28.0999 152.8 28.0999C154.4 28.0999 155.8 28.1999 157.2 28.4999C158.5 28.7999 159.8 29.1999 161 29.6999L159.2 36.3999C158.4 36.0999 157.5 35.7999 156.6 35.5999C155.7 35.3999 154.6 35.2999 153.4 35.2999C150.9 35.2999 149.1 36.0999 147.8 37.5999C146.6 39.0999 146 41.1999 146 43.6999C146 46.3999 146.6 48.3999 147.7 49.8999C148.8 51.3999 150.9 52.0999 153.7 52.0999C154.7 52.0999 155.8 51.9999 157 51.7999C158.2 51.5999 159.2 51.2999 160.2 50.8999L161.4 57.7999C160.4 58.1999 159.2 58.5999 157.7 58.8999C156.2 59.1999 154.6 59.3999 152.8 59.3999C150.1 59.3999 147.8 58.9999 145.8 58.1999C143.8 57.3999 142.2 56.2999 141 54.8999C139.7 53.4999 138.8 51.8999 138.2 49.9999C137.9 48.0999 137.6 45.9999 137.6 43.7999Z" fill="#001052"/>
<path d="M164.9 20.3998L173.3 18.9998V27.9998H183.4V35.1998H173.3V45.9998C173.3 47.7998 173.6 49.2998 174.2 50.3998C174.8 51.4998 176.1 51.9998 178 51.9998C178.9 51.9998 179.8 51.8998 180.8 51.6998C181.8 51.4998 182.6 51.2998 183.4 50.9998L184.6 57.7998C183.6 58.1998 182.5 58.5998 181.2 58.8998C179.9 59.1998 178.4 59.3998 176.6 59.3998C174.3 59.3998 172.4 59.0998 170.9 58.3998C169.4 57.7998 168.2 56.8998 167.3 55.6998C166.4 54.5998 165.8 53.1998 165.4 51.4998C165 49.8998 164.9 48.0998 164.9 46.0998V20.3998V20.3998Z" fill="#001052"/>
<path d="M213.5 57.6999C212.1 58.0999 210.2 58.4999 208 58.8999C205.7 59.2999 203.4 59.4999 200.9 59.4999C198.4 59.4999 196.3 59.1999 194.6 58.4999C192.9 57.7999 191.6 56.7999 190.6 55.5999C189.6 54.2999 188.9 52.7999 188.5 51.0999C188.1 49.3999 187.9 47.3999 187.9 45.2999V28.2999H196.3V44.2999C196.3 47.0999 196.7 49.0999 197.4 50.3999C198.1 51.5999 199.5 52.2999 201.4 52.2999C202 52.2999 202.6 52.2999 203.3 52.1999C204 52.0999 204.6 52.0999 205.1 51.9999V28.0999H213.5V57.6999V57.6999Z" fill="#001052"/>
<path d="M236.2 36.5C235.4 36.3 234.6 36.1 233.5 35.9C232.5 35.7 231.4 35.6 230.2 35.6C229.7 35.6 229 35.6 228.3 35.7C227.6 35.8 227 35.9 226.6 36V59.4H218.2V30.4C219.7 29.9 221.5 29.3 223.5 28.9C225.6 28.4 227.8 28.2 230.4 28.2C230.9 28.2 231.4 28.2 232 28.3C232.6 28.4 233.3 28.4 233.9 28.5C234.5 28.6 235.2 28.7 235.8 28.8C236.4 28.9 237 29.1 237.4 29.3L236.2 36.5Z" fill="#001052"/>
<path d="M252.1 28.2998C254.6 28.2998 256.7 28.5998 258.3 29.0998C260 29.6998 261.3 30.4998 262.3 31.4998C263.3 32.5998 264 33.7998 264.4 35.2998C264.8 36.7998 265 38.4998 265 40.2998V57.9998C263.8 58.2998 262.1 58.5998 260 58.8998C257.9 59.2998 255.3 59.3998 252.2 59.3998C250.3 59.3998 248.5 59.1998 247 58.8998C245.4 58.5998 244.1 57.9998 243 57.1998C241.9 56.3998 241 55.3998 240.4 54.1998C239.8 52.9998 239.5 51.3998 239.5 49.5998C239.5 47.8998 239.8 46.3998 240.5 45.1998C241.2 43.9998 242.1 42.9998 243.3 42.2998C244.5 41.5998 245.8 41.0998 247.3 40.6998C248.8 40.3998 250.4 40.1998 252 40.1998C253.1 40.1998 254.1 40.1998 254.9 40.2998C255.7 40.3998 256.4 40.4998 257 40.6998V39.8998C257 38.4998 256.6 37.2998 255.7 36.4998C254.8 35.5998 253.3 35.1998 251.2 35.1998C249.8 35.1998 248.4 35.2998 247 35.4998C245.6 35.6998 244.4 35.9998 243.4 36.3998L242.3 29.5998C242.8 29.3998 243.4 29.2998 244.1 29.0998C244.8 28.8998 245.6 28.7998 246.5 28.5998C247.4 28.4998 248.3 28.3998 249.2 28.2998C250.1 28.3998 251.1 28.2998 252.1 28.2998ZM252.7 52.9998C253.5 52.9998 254.3 52.9998 255.1 52.8998C255.9 52.8998 256.5 52.7998 256.9 52.6998V46.2998C256.6 46.1998 256.1 46.0998 255.4 46.0998C254.7 45.9998 254.1 45.9998 253.5 45.9998C252.7 45.9998 252 45.9998 251.3 46.0998C250.6 46.1998 250 46.3998 249.5 46.5998C249 46.8998 248.6 47.1998 248.3 47.6998C248 48.1998 247.8 48.6998 247.8 49.3998C247.8 50.6998 248.2 51.5998 249.1 52.0998C250 52.6998 251.2 52.9998 252.7 52.9998Z" fill="#001052"/>
<path d="M280.5 54.2999C280.5 55.9999 280 57.2999 278.9 58.1999C277.8 59.0999 276.6 59.4999 275.3 59.4999C274 59.4999 272.7 59.0999 271.7 58.1999C270.6 57.2999 270.1 55.9999 270.1 54.2999C270.1 52.5999 270.6 51.2999 271.7 50.3999C272.8 49.4999 274 49.0999 275.3 49.0999C276.6 49.0999 277.9 49.4999 278.9 50.3999C280 51.2999 280.5 52.5999 280.5 54.2999Z" fill="#FF6600"/>
<path d="M282.6 43.7999C282.6 41.6999 282.9 39.5999 283.6 37.6999C284.3 35.7999 285.3 34.0999 286.6 32.6999C287.9 31.2999 289.5 30.1999 291.4 29.2999C293.3 28.4999 295.4 28.0999 297.8 28.0999C299.4 28.0999 300.8 28.1999 302.2 28.4999C303.5 28.7999 304.8 29.1999 306 29.6999L304.2 36.3999C303.4 36.0999 302.5 35.7999 301.6 35.5999C300.7 35.3999 299.6 35.2999 298.4 35.2999C295.9 35.2999 294.1 36.0999 292.8 37.5999C291.6 39.0999 291 41.1999 291 43.6999C291 46.3999 291.6 48.3999 292.7 49.8999C293.8 51.3999 295.9 52.0999 298.7 52.0999C299.7 52.0999 300.8 51.9999 302 51.7999C303.2 51.5999 304.2 51.2999 305.2 50.8999L306.4 57.7999C305.4 58.1999 304.2 58.5999 302.7 58.8999C301.2 59.1999 299.6 59.3999 297.8 59.3999C295.1 59.3999 292.8 58.9999 290.8 58.1999C288.8 57.3999 287.2 56.2999 286 54.8999C284.7 53.4999 283.8 51.8999 283.2 49.9999C282.9 48.0999 282.6 45.9999 282.6 43.7999Z" fill="#FF6600"/>
<path d="M339.1 43.6999C339.1 45.9999 338.8 48.1999 338.1 50.0999C337.4 51.9999 336.4 53.6999 335.2 55.0999C333.9 56.4999 332.4 57.4999 330.6 58.2999C328.8 59.0999 326.8 59.3999 324.6 59.3999C322.4 59.3999 320.4 58.9999 318.6 58.2999C316.8 57.4999 315.3 56.4999 314 55.0999C312.7 53.6999 311.7 52.0999 311 50.0999C310.3 48.1999 309.9 45.9999 309.9 43.6999C309.9 41.3999 310.3 39.1999 311 37.2999C311.7 35.3999 312.8 33.6999 314.1 32.3999C315.4 30.9999 316.9 29.9999 318.7 29.1999C320.5 28.3999 322.4 28.0999 324.5 28.0999C326.6 28.0999 328.6 28.4999 330.4 29.1999C332.2 29.9999 333.7 30.9999 335 32.3999C336.3 33.7999 337.3 35.3999 338 37.2999C338.8 39.2999 339.1 41.3999 339.1 43.6999ZM330.5 43.6999C330.5 41.0999 330 39.0999 328.9 37.5999C327.9 36.0999 326.4 35.3999 324.5 35.3999C322.6 35.3999 321.1 36.0999 320 37.5999C318.9 39.0999 318.4 41.0999 318.4 43.6999C318.4 46.2999 318.9 48.3999 320 49.8999C321.1 51.3999 322.5 52.1999 324.5 52.1999C326.5 52.1999 327.9 51.3999 328.9 49.8999C330 48.3999 330.5 46.2999 330.5 43.6999Z" fill="#FF6600"/>
<path d="M358.7 43.1999C358.7 40.3999 358.4 38.3999 357.7 37.2999C357 36.0999 355.8 35.5999 354.1 35.5999C353.6 35.5999 353 35.5999 352.5 35.6999C351.9 35.7999 351.4 35.7999 350.9 35.8999V59.4999H342.5V29.8999C343.2 29.6999 344.1 29.4999 345 29.2999C346 29.0999 347 28.8999 348.1 28.6999C349.2 28.4999 350.3 28.3999 351.4 28.2999C352.5 28.1999 353.6 28.1999 354.7 28.1999C356.8 28.1999 358.6 28.4999 359.9 28.9999C361.2 29.5999 362.3 30.1999 363.2 30.9999C364.4 30.0999 365.8 29.3999 367.4 28.8999C369 28.3999 370.4 28.0999 371.7 28.0999C374.1 28.0999 376 28.3999 377.5 29.0999C379 29.7999 380.2 30.6999 381.1 31.9999C382 33.1999 382.6 34.6999 383 36.3999C383.3 38.0999 383.5 39.9999 383.5 42.0999V59.3999H375.1V43.1999C375.1 40.3999 374.8 38.3999 374.1 37.2999C373.4 36.0999 372.2 35.5999 370.5 35.5999C370 35.5999 369.4 35.6999 368.6 35.8999C367.8 36.0999 367.1 36.3999 366.6 36.7999C366.9 37.6999 367 38.5999 367.1 39.5999C367.2 40.5999 367.2 41.5999 367.2 42.7999V59.4999H358.8V43.1999H358.7Z" fill="#FF6600"/>
</svg>
